<svg xmlns="http://www.w3.org/2000/svg" width="250" height="73.749" viewBox="0 0 250 73.749">
  <path id="navbar-dp-shape-2" d="M15.88,3.245s36-3.63,61.054-4.631c41.108-1.644,74.6.6,114.823,1.753s46.057,2.878,46.057,2.878c8.183,0,11.463,7.113,11.463,15.886V34.488a189.585,189.585,0,0,1-1.264,19.063c0,8.774-6.634,15.886-14.817,15.886,0,0-68.307,3.971-122.36,1.57S23.2,66.894,23.2,66.894c-8.183,0-20.15-5.972-20.15-14.746,0,0-4.179-8.546-3.741-17.152A139.546,139.546,0,0,1,1.063,19.131C1.063,10.357,7.7,3.245,15.88,3.245Z" transform="translate(0.723 1.969)" fill="#ccdaee"/>
</svg>
