<svg xmlns="http://www.w3.org/2000/svg" width="125" height="108.773" viewBox="0 0 125 108.773">
  <g id="shop-card" transform="translate(-106.2 -156.3)">
    <path id="XMLID_136_" d="M126.215,163.139l4.307,17.646v.169l13.005,53.276a3.449,3.449,0,0,0,3.378,2.617h67.054a3.353,3.353,0,0,0,3.294-2.617l13.85-53.36a3.677,3.677,0,0,0-.591-2.955,3.526,3.526,0,0,0-2.7-1.351H136.6L132.3,158.917a3.449,3.449,0,0,0-3.378-2.617H109.662a3.462,3.462,0,1,0,0,6.923h16.552ZM223.333,183.4l-12.076,46.521H149.607L138.291,183.4Z" transform="translate(0 0)" fill="#414042"/>
    <path id="XMLID_133_" d="M230.869,268.585a12.085,12.085,0,1,0-12.085,12.085A12.082,12.082,0,0,0,230.869,268.585Zm-17.324,0a5.239,5.239,0,1,1,5.24,5.239A5.16,5.16,0,0,1,213.545,268.585Z" transform="translate(-15.654 -15.597)" fill="#414042"/>
    <path id="XMLID_72_" d="M177.069,268.585a12.085,12.085,0,1,0-12.085,12.085A12.082,12.082,0,0,0,177.069,268.585Zm-17.324,0a5.239,5.239,0,1,1,5.239,5.239A5.16,5.16,0,0,1,159.745,268.585Z" transform="translate(-7.268 -15.597)" fill="#414042"/>
  </g>
</svg>
