<svg xmlns="http://www.w3.org/2000/svg" width="520" height="520" viewBox="0 0 520 520">
  <g id="logo-black-bg" transform="translate(-0.078 -0.035)">
    <rect id="XMLID_541_" width="520" height="520" transform="translate(0.078 0.035)" fill="#211d1e"/>
    <g id="Group_128" data-name="Group 128" transform="translate(89.569 50.038)">
      <g id="XMLID_415_" transform="translate(19.468 10.368)">
        <g id="XMLID_243_" transform="translate(79.037)">
          <g id="XMLID_303_">
            <path id="XMLID_467_" d="M721.551,410.56a3.671,3.671,0,0,1-1.456-.312,3.478,3.478,0,0,1-1.7-4.611L796.056,235.65a9.884,9.884,0,0,0-4.368-12.793c-81.232-43.164-163.608-52.768-244.77-28.568a3.455,3.455,0,0,1-1.976-6.622c41.5-12.377,83.589-16.191,125.089-11.372,41.465,4.819,83.52,18.444,124.916,40.46a16.826,16.826,0,0,1,7.419,21.807L724.706,408.549A3.5,3.5,0,0,1,721.551,410.56Z" transform="translate(-542.47 -174.276)" fill="#f4e2ce"/>
          </g>
          <g id="XMLID_447_" transform="translate(46.54 302.812)">
            <path id="XMLID_465_" d="M727.5,1144.109a14.651,14.651,0,0,1-13.348-8.39l-37.1-77a3.458,3.458,0,0,1,6.241-2.982l37.1,77a7.705,7.705,0,0,0,7.107,4.473h.1a7.759,7.759,0,0,0,7.107-4.611l37.86-82.9a3.475,3.475,0,1,1,6.31,2.912l-37.86,82.9a14.756,14.756,0,0,1-13.348,8.667A.224.224,0,0,0,727.5,1144.109Z" transform="translate(-676.707 -1047.688)" fill="#f4e2ce"/>
          </g>
        </g>
        <g id="XMLID_574_" transform="translate(0 253.966)">
          <g id="XMLID_572_">
            <path id="XMLID_322_" d="M561.489,941.054H314.5l6.171-17.127L314.5,906.8H561.489l-7.419,17.127Z" transform="translate(-314.5 -906.8)" fill="#f64d16"/>
          </g>
          <g id="Group_122" data-name="Group 122" transform="translate(64.723 6.06)">
            <path id="Path_410" data-name="Path 410" d="M1201.958,874.872l2.078,6.572h6.907l-5.574,3.992,2.164,6.574-5.574-4.078-5.574,4.078,2.164-6.574-5.657-3.992h6.9Z" transform="translate(-1171.761 -871.68)" fill="#f4e2ce" fill-rule="evenodd"/>
            <path id="Path_411" data-name="Path 411" d="M1227.667,878.1l1.416,4.574h4.823L1230,885.506l1.5,4.577-3.826-2.828-3.909,2.828,1.5-4.577-3.909-2.828h4.826Z" transform="translate(-1116.25 -872.332)" fill="#f4e2ce" fill-rule="evenodd"/>
            <path id="Path_412" data-name="Path 412" d="M1177.656,878.1l1.5,4.574h4.824l-3.909,2.828,1.5,4.577-3.909-2.828-3.826,2.828,1.5-4.577-3.912-2.828h4.827Z" transform="translate(-1171.416 -872.332)" fill="#f4e2ce" fill-rule="evenodd"/>
            <path id="Path_413" data-name="Path 413" d="M1201.958,874.872l2.078,6.572h6.907l-5.574,3.992,2.164,6.574-5.574-4.078-5.574,4.078,2.164-6.574-5.657-3.992h6.9Z" transform="translate(-1113.813 -871.68)" fill="#f4e2ce" fill-rule="evenodd"/>
            <path id="Path_414" data-name="Path 414" d="M1204.917,874.872l2.756,8.716h9.161l-7.393,5.295,2.87,8.719-7.393-5.408-7.393,5.408,2.87-8.719-7.5-5.295h9.157Z" transform="translate(-1145.424 -874.872)" fill="#f4e2ce" fill-rule="evenodd"/>
          </g>
        </g>
        <g id="XMLID_394_" transform="translate(283.423 69.552)">
          <path id="XMLID_463_" d="M1135.459,426.932a3.384,3.384,0,0,1-1.526-.347,3.467,3.467,0,0,1-1.595-4.646l21.946-45.106a3.473,3.473,0,0,1,6.241,3.051l-21.946,45.106A3.485,3.485,0,0,1,1135.459,426.932Z" transform="translate(-1131.988 -374.888)" fill="#f4e2ce"/>
        </g>
        <g id="XMLID_398_" transform="translate(103.247 28.334)">
          <path id="XMLID_462_" d="M638.545,262.934H615.767a3.467,3.467,0,0,1,0-6.934h22.778a3.467,3.467,0,0,1,0,6.934Z" transform="translate(-612.3 -256)" fill="#f4e2ce"/>
        </g>
        <g id="XMLID_300_" transform="translate(157.748 323.029)">
          <path id="XMLID_324_" d="M783.888,1134.776a14.388,14.388,0,1,1,14.388-14.388A14.4,14.4,0,0,1,783.888,1134.776Zm0-21.877a7.454,7.454,0,1,0,7.454,7.454A7.465,7.465,0,0,0,783.888,1112.9Z" transform="translate(-769.5 -1106)" fill="#f4e2ce"/>
        </g>
      </g>
      <g id="logo_text" data-name="logo text">
        <text id="UMMY" transform="translate(159.509 138.997)" fill="#f64d16" font-size="115" font-family="Calligraphy" letter-spacing="0.05em"><tspan x="-99.533" y="0">UMMY</tspan></text>
        <text id="Y" transform="translate(36.509 134.997)" fill="#f64d16" font-size="193" font-family="Calligraphy"><tspan x="-21.809" y="0">Y</tspan></text>
        <text id="MENU" transform="translate(128.509 229.997)" fill="#f8b715" font-size="124" font-family="Calligraphy" letter-spacing="0.05em"><tspan x="-105.462" y="0">MENU</tspan></text>
      </g>
    </g>
  </g>
</svg>
