<svg xmlns="http://www.w3.org/2000/svg" width="250" height="284.363" viewBox="0 0 250 284.363">
  <g id="logo-light" transform="translate(-93 -52.158)">
    <g id="XMLID_415_" transform="translate(106.523 59.159)">
      <g id="XMLID_243_" transform="translate(54.901)">
        <g id="XMLID_303_">
          <path id="XMLID_467_" d="M666.863,338.4a2.549,2.549,0,0,1-1.011-.217,2.416,2.416,0,0,1-1.18-3.2l53.945-118.076a6.866,6.866,0,0,0-3.034-8.886c-56.425-29.983-113.645-36.653-170.022-19.844a2.4,2.4,0,1,1-1.373-4.6,215.513,215.513,0,0,1,86.889-7.9c28.8,3.347,58.015,12.812,86.769,28.1A11.688,11.688,0,0,1,723,218.931L669.054,337.007A2.432,2.432,0,0,1,666.863,338.4Z" transform="translate(-542.47 -174.276)" fill="#f47722"/>
        </g>
        <g id="XMLID_447_" transform="translate(32.328 210.339)">
          <path id="XMLID_465_" d="M711.986,1114.664a10.177,10.177,0,0,1-9.272-5.828l-25.768-53.487a2.4,2.4,0,0,1,4.335-2.071l25.768,53.487a5.352,5.352,0,0,0,4.937,3.107h.072a5.389,5.389,0,0,0,4.937-3.2l26.3-57.581a2.414,2.414,0,1,1,4.383,2.023l-26.3,57.581a10.25,10.25,0,0,1-9.272,6.021A.156.156,0,0,0,711.986,1114.664Z" transform="translate(-676.707 -1047.688)" fill="#f47722"/>
        </g>
      </g>
      <g id="XMLID_574_" transform="translate(0 176.409)">
        <g id="XMLID_572_">
          <path id="XMLID_322_" d="M486.063,930.593H314.5l4.287-11.9L314.5,906.8H486.063l-5.154,11.9Z" transform="translate(-314.5 -906.8)" fill="#f64d16"/>
        </g>
        <g id="Group_122" data-name="Group 122" transform="translate(44.958 4.209)">
          <path id="Path_410" data-name="Path 410" d="M1199.189,874.872l1.443,4.565h4.8l-3.872,2.773,1.5,4.567-3.872-2.832-3.872,2.832,1.5-4.567-3.929-2.773h4.8Z" transform="translate(-1178.214 -872.655)" fill="#f4e2ce" fill-rule="evenodd"/>
          <path id="Path_411" data-name="Path 411" d="M1225.737,878.1l.984,3.177h3.35l-2.715,1.965,1.039,3.18-2.658-1.965-2.715,1.965,1.039-3.18-2.715-1.965h3.352Z" transform="translate(-1148.344 -874.095)" fill="#f4e2ce" fill-rule="evenodd"/>
          <path id="Path_412" data-name="Path 412" d="M1175.75,878.1l1.041,3.177h3.351l-2.716,1.965,1.039,3.18-2.715-1.965-2.658,1.965,1.041-3.18-2.718-1.965h3.353Z" transform="translate(-1171.416 -874.095)" fill="#f4e2ce" fill-rule="evenodd"/>
          <path id="Path_413" data-name="Path 413" d="M1199.189,874.872l1.443,4.565h4.8l-3.872,2.773,1.5,4.567-3.872-2.832-3.872,2.832,1.5-4.567-3.929-2.773h4.8Z" transform="translate(-1137.962 -872.655)" fill="#f4e2ce" fill-rule="evenodd"/>
          <path id="Path_414" data-name="Path 414" d="M1201.244,874.872l1.914,6.054h6.363l-5.135,3.678,1.993,6.057-5.135-3.757-5.135,3.757,1.993-6.057-5.212-3.678h6.36Z" transform="translate(-1159.919 -874.872)" fill="#f4e2ce" fill-rule="evenodd"/>
        </g>
      </g>
      <g id="XMLID_394_" transform="translate(196.871 48.312)">
        <path id="XMLID_463_" d="M1134.4,411.038a2.351,2.351,0,0,1-1.06-.241,2.408,2.408,0,0,1-1.108-3.227l15.244-31.331a2.413,2.413,0,0,1,4.335,2.119l-15.244,31.331A2.421,2.421,0,0,1,1134.4,411.038Z" transform="translate(-1131.988 -374.888)" fill="#f47722"/>
      </g>
      <g id="XMLID_398_" transform="translate(71.717 19.681)">
        <path id="XMLID_462_" d="M630.53,260.816H614.708a2.408,2.408,0,0,1,0-4.816H630.53a2.408,2.408,0,0,1,0,4.816Z" transform="translate(-612.3 -256)" fill="#f47722"/>
      </g>
      <g id="XMLID_300_" transform="translate(109.575 224.382)">
        <path id="XMLID_324_" d="M779.494,1125.988a9.994,9.994,0,1,1,9.994-9.994A10,10,0,0,1,779.494,1125.988Zm0-15.2a5.178,5.178,0,1,0,5.178,5.178A5.185,5.185,0,0,0,779.494,1110.792Z" transform="translate(-769.5 -1106)" fill="#f47722"/>
      </g>
    </g>
    <g id="logo_text" data-name="logo text" transform="translate(93 51.957)">
      <text id="MENU" transform="translate(92 162.201)" font-size="87" font-family="Calligraphy" letter-spacing="0.05em" opacity="0.15"><tspan x="-73.993" y="0">MENU</tspan></text>
      <text id="MENU-2" data-name="MENU" transform="translate(89 160.201)" fill="#f8b715" font-size="87" font-family="Calligraphy" letter-spacing="0.05em"><tspan x="-73.993" y="0">MENU</tspan></text>
      <g id="Group_123" data-name="Group 123" transform="translate(2.676 2.676)" opacity="0.15">
        <text id="UMMY" transform="translate(110.324 96.525)" font-size="80" font-family="Calligraphy" letter-spacing="0.05em"><tspan x="-69.24" y="0">UMMY</tspan></text>
        <text id="Y" transform="translate(26.324 93.525)" font-size="134" font-family="Calligraphy"><tspan x="-15.142" y="0">Y</tspan></text>
      </g>
      <g id="Group_124" data-name="Group 124">
        <text id="UMMY-2" data-name="UMMY" transform="translate(110 96.201)" fill="#f64d16" font-size="80" font-family="Calligraphy" letter-spacing="0.05em"><tspan x="-69.24" y="0">UMMY</tspan></text>
        <text id="Y-2" data-name="Y" transform="translate(26 94.201)" fill="#f64d16" font-size="134" font-family="Calligraphy"><tspan x="-15.142" y="0">Y</tspan></text>
      </g>
    </g>
  </g>
</svg>
