<svg xmlns="http://www.w3.org/2000/svg" width="250" height="285.378" viewBox="0 0 250 285.378">
  <g id="logo-black" transform="translate(-93 -51.145)">
    <g id="XMLID_415_" transform="translate(106.522 59.159)">
      <g id="XMLID_243_" transform="translate(54.898)">
        <g id="XMLID_303_">
          <path id="XMLID_467_" d="M666.865,338.4a2.55,2.55,0,0,1-1.011-.217,2.416,2.416,0,0,1-1.18-3.2l53.946-118.07a6.865,6.865,0,0,0-3.034-8.886c-56.426-29.981-113.647-36.652-170.025-19.843a2.4,2.4,0,1,1-1.373-4.6,215.532,215.532,0,0,1,86.891-7.9c28.8,3.347,58.016,12.811,86.771,28.1A11.687,11.687,0,0,1,723,218.928L669.056,337A2.432,2.432,0,0,1,666.865,338.4Z" transform="translate(-542.47 -174.276)"/>
        </g>
        <g id="XMLID_447_" transform="translate(32.33 210.342)">
          <path id="XMLID_465_" d="M711.984,1114.661a10.176,10.176,0,0,1-9.271-5.828l-25.767-53.484a2.4,2.4,0,1,1,4.335-2.071l25.767,53.484a5.352,5.352,0,0,0,4.937,3.107h.072a5.389,5.389,0,0,0,4.937-3.2l26.3-57.578a2.414,2.414,0,0,1,4.383,2.023l-26.3,57.578a10.25,10.25,0,0,1-9.271,6.02A.155.155,0,0,0,711.984,1114.661Z" transform="translate(-676.707 -1047.688)"/>
        </g>
      </g>
      <g id="XMLID_574_" transform="translate(0 176.41)">
        <g id="XMLID_572_" transform="translate(0 0)">
          <path id="XMLID_322_" d="M486.055,930.592H314.5l4.286-11.9L314.5,906.8H486.055L480.9,918.7Z" transform="translate(-314.5 -906.8)"/>
        </g>
        <g id="Group_122" data-name="Group 122" transform="translate(44.956 4.209)">
          <path id="Path_410" data-name="Path 410" d="M1199.189,874.872l1.443,4.565h4.8l-3.872,2.773,1.5,4.566-3.872-2.832-3.872,2.832,1.5-4.566-3.929-2.773h4.8Z" transform="translate(-1178.215 -872.655)" fill="#fff" fill-rule="evenodd"/>
          <path id="Path_411" data-name="Path 411" d="M1225.737,878.1l.984,3.177h3.35l-2.715,1.965,1.039,3.179-2.657-1.965-2.715,1.965,1.039-3.179-2.715-1.965h3.352Z" transform="translate(-1148.348 -874.095)" fill="#fff" fill-rule="evenodd"/>
          <path id="Path_412" data-name="Path 412" d="M1175.75,878.1l1.041,3.177h3.35l-2.715,1.965,1.039,3.179-2.715-1.965-2.657,1.965,1.041-3.179-2.718-1.965h3.353Z" transform="translate(-1171.416 -874.095)" fill="#fff" fill-rule="evenodd"/>
          <path id="Path_413" data-name="Path 413" d="M1199.189,874.872l1.443,4.565h4.8l-3.872,2.773,1.5,4.566-3.872-2.832-3.872,2.832,1.5-4.566-3.929-2.773h4.8Z" transform="translate(-1137.964 -872.655)" fill="#fff" fill-rule="evenodd"/>
          <path id="Path_414" data-name="Path 414" d="M1201.244,874.872l1.914,6.054h6.363l-5.135,3.678,1.993,6.056-5.135-3.757-5.135,3.757,1.993-6.056-5.211-3.678h6.36Z" transform="translate(-1159.921 -874.872)" fill="#fff" fill-rule="evenodd"/>
        </g>
      </g>
      <g id="XMLID_394_" transform="translate(196.873 48.313)">
        <path id="XMLID_463_" d="M1134.4,411.037a2.351,2.351,0,0,1-1.06-.241,2.408,2.408,0,0,1-1.108-3.227l15.243-31.33a2.413,2.413,0,0,1,4.335,2.119l-15.244,31.33A2.42,2.42,0,0,1,1134.4,411.037Z" transform="translate(-1131.988 -374.888)"/>
      </g>
      <g id="XMLID_398_" transform="translate(71.718 19.68)">
        <path id="XMLID_462_" d="M630.529,260.816H614.708a2.408,2.408,0,0,1,0-4.816h15.821a2.408,2.408,0,0,1,0,4.816Z" transform="translate(-612.3 -256)"/>
      </g>
      <g id="XMLID_300_" transform="translate(109.576 224.385)">
        <path id="XMLID_324_" d="M779.494,1125.987a9.994,9.994,0,1,1,9.994-9.994A10,10,0,0,1,779.494,1125.987Zm0-15.2a5.177,5.177,0,1,0,5.177,5.177A5.185,5.185,0,0,0,779.494,1110.792Z" transform="translate(-769.5 -1106)"/>
      </g>
    </g>
    <g id="logo_text" data-name="logo text" transform="translate(93 51.145)">
      <text id="MENU" transform="translate(89 161)" font-size="87" font-family="Calligraphy" letter-spacing="0.05em"><tspan x="-73.993" y="0">MENU</tspan></text>
      <g id="Group_124" data-name="Group 124" transform="translate(0 0)">
        <text id="UMMY" transform="translate(110 96)" font-size="80" font-family="Calligraphy" letter-spacing="0.05em"><tspan x="-69.24" y="0">UMMY</tspan></text>
        <text id="Y" transform="translate(26 92)" font-size="132" font-family="Calligraphy"><tspan x="-14.916" y="0">Y</tspan></text>
      </g>
    </g>
  </g>
</svg>
